<svg viewBox="346.7625000000003 24.743589743589382 3319.0125 3266.1538461538476" xmlns="http://www.w3.org/2000/svg" xmlns:xlink="http://www.w3.org/1999/xlink" xmlns:blush="http://design.blush" overflow="visible" width="3319.0125px" height="3266.1538461538476px"><defs><polygon id="masterspot-illustrationto-do-list-path-1" points="0.468544226 0.286 53.515 0.286 53.515 107.756 0.468544226 107.756"/><polygon id="masterspot-illustrationto-do-list-path-3" points="0 0.2826 603.923514 0.2826 603.923514 617 0 617"/><polygon id="masterspot-illustrationto-do-list-path-5" points="0.3831 0.682 291.680835 0.682 291.680835 266.8063 0.3831 266.8063"/><polygon id="masterspot-illustrationto-do-list-path-7" points="0.30206309 0.307802676 128.976 0.307802676 128.976 395.282713 0.30206309 395.282713"/><polygon id="masterspot-illustrationto-do-list-path-9" points="0 0.000226663446 267.056737 0.000226663446 267.056737 209.265844 0 209.265844"/></defs><g id="Master/Spot Illustration/To Do List" stroke="none" stroke-width="1" fill="none" fill-rule="evenodd" blush:viewBox="376.4850000000001 57.46406570841873 3210.0300000000007 3210.06160164271" blush:i="0"><ellipse id="Floor" fill="#D5ECFF" opacity=".5" cx="1982" cy="3206" rx="1602" ry="58" blush:i="0.0"/><g id="Group" transform="translate(1826.000000, 1659.500000) scale(-1, 1) translate(-1826.000000, -1659.500000) translate(599.000000, 58.000000)" blush:i="0.1"><g id="Wooden-board" blush:i="0.1.0"><rect id="Board" fill="#DDB0C8" x="0" y="361" width="2041" height="2785" rx="15" blush:i="0.1.0.0"/><g id="Paper" transform="translate(105.000000, 479.000000)" blush:i="0.1.0.1"><rect id="Rectangle" fill="#EECCDC" x="0" y="0" width="1828" height="2507" blush:i="0.1.0.1.0"/><rect id="Rectangle-Copy-38" fill="#FCEBEC" x="0" y="0" width="1828" height="2507" blush:i="0.1.0.1.1"/><g id="Writing" transform="translate(185.000000, 288.000000)" fill="#EECCDC" blush:i="0.1.0.1.2"><rect id="Rectangle-Copy-11" x="0" y="0" width="1458" height="40" blush:i="0.1.0.1.2.0"/><rect id="Rectangle-Copy-42" x="0" y="1080" width="1458" height="40" blush:i="0.1.0.1.2.1"/><rect id="Rectangle-Copy-39" x="0" y="270" width="1458" height="40" blush:i="0.1.0.1.2.2"/><rect id="Rectangle-Copy-43" x="0" y="1350" width="1458" height="40" blush:i="0.1.0.1.2.3"/><rect id="Rectangle-Copy-40" x="0" y="540" width="1458" height="40" blush:i="0.1.0.1.2.4"/><rect id="Rectangle-Copy-44" x="0" y="1620" width="1458" height="40" blush:i="0.1.0.1.2.5"/><rect id="Rectangle-Copy-41" x="0" y="810" width="1458" height="40" blush:i="0.1.0.1.2.6"/><rect id="Rectangle-Copy-45" x="0" y="1890" width="1458" height="40" blush:i="0.1.0.1.2.7"/></g></g><ellipse id="Oval" fill="#EECCDC" cx="1018.5" cy="180.5" rx="179.5" ry="180.5" blush:i="0.1.0.2"/><path d="M667,299 L1370,299 C1425.22847,299 1470,343.771525 1470,399 L1470,575 L1470,575 L567,575 L567,399 C567,343.771525 611.771525,299 667,299 Z" id="Rectangle" fill="#EECCDC" blush:i="0.1.0.3"/></g><g id="Pencil-Copy" transform="translate(2040.809191, 1801.518373) rotate(-11.000000) translate(-2040.809191, -1801.518373) translate(1891.809191, 403.018373)" blush:i="0.1.1"><polygon id="Triangle" fill="#FFF" points="151.308185 2.8189407 297.308185 459.291989 148.298357 683.818941 5.30818493 459.291989" blush:i="0.1.1.0"/><path d="M3.89057016,460.989846 L72.4335884,559.555247 L145.58164,460.989846 L225.827186,559.555247 L296.947234,460.989846 L296.947234,2696.98985 C296.947234,2752.21832 252.175709,2796.98985 196.947234,2796.98985 L101.073312,2796.98985 C45.8448372,2796.98985 1.07331221,2752.21832 1.07331221,2696.98985 C1.07331221,2696.94785 1.07333867,2696.90585 1.07339159,2696.86385 L3.89057016,460.989846 L3.89057016,460.989846 Z" id="Rectangle" fill="#EECCDC" blush:i="0.1.1.1"/><rect id="Rectangle" fill="#DDB0C8" x=".713" y="2332.47" width="296" height="283" blush:i="0.1.1.2"/><polygon id="Triangle" fill="#DDB0C8" points="150.850541 0.672855709 186.352947 111.672856 115.352947 111.672856" blush:i="0.1.1.3"/></g></g><g transform="translate(1767.000000, 556.000000) scale(1 1)" blush:has-customizable-colors="true" blush:width="2330" blush:height="2708" id="Master/Character/Standing" blush:component="Master/Character/Standing" blush:i="0.2" blush:value="Standing" blush:viewBox="623.1395348837209 243.72000000000025 1056.6279069767443 2464.2799999999993"><defs blush:i="0.2.0"><polygon id="mastercharacterstanding-path-1" points="0.0001 0.000131119082 485.023 0.000131119082 485.023 527.3 0.0001 527.3" blush:i="0.2.0.0"/></defs><g id="Master/Character/Standing" stroke="none" stroke-width="1" fill="none" fill-rule="evenodd" blush:has-customizable-colors="true" blush:viewBox="623.1395348837209 243.72000000000025 1056.6279069767443 2464.2799999999993" blush:i="0.2.1"><g id="Lower Body/Standing" transform="translate(503.000000, 1151.000000) scale(1 1)" blush:width="1383" blush:height="1557" blush:component="Lower Body/Standing" blush:i="0.2.1.0" blush:value="Yoga Pose" blush:viewBox="294.3547297297298 0 1090.2027027027023 1556.9999999999995"><defs blush:i="0.2.1.0.0"><polygon id="lower-bodystandingyoga-pose-path-1" points="0.799884371 0.5342 960.911 0.5342 960.911 1289.69417 0.799884371 1289.69417" blush:i="0.2.1.0.0.0"/></defs><g id="Lower Body/Standing/Yoga Pose" stroke="none" stroke-width="1" fill="none" fill-rule="evenodd" blush:viewBox="294.3547297297298 0 1090.2027027027023 1556.9999999999995" blush:i="0.2.1.0.1"><path d="M873.5,0.5 L422.505208,0.5 L424.494845,192.5 L873.5,192.5 L873.5,0.5 Z" id="Rectangle" stroke="#979797" fill="#FC7750" blush:i="0.2.1.0.1.0"/><g id="Group-109" transform="translate(298.000000, 99.000000)" blush:i="0.2.1.0.1.1"><path d="M553.7065,733.4568 C553.7065,733.4568 508.5265,745.9198 453.9995,749.0358 C399.4715,752.1518 391.6815,769.2888 407.2615,876.7858 C422.8405,984.2828 421.2825,1158.7708 452.4415,1130.7288 C483.5995,1102.6858 468.0205,951.5658 539.6855,872.1118 C611.3495,792.6578 602.0025,822.2588 602.0025,822.2588 L553.7065,733.4568 Z" id="Fill-96" fill="#f6cbc3" blush:color="Skin-500" blush:i="0.2.1.0.1.1.0"/><path d="M253.0398,1251.7655 C253.0398,1251.7655 263.8988,1297.1755 233.2958,1312.9715 C202.6928,1328.7665 148.3978,1366.2795 71.3958,1393.9205 C-5.6052,1421.5625 -22.3872,1448.2165 33.8828,1455.1265 C90.1528,1462.0365 151.3588,1456.1145 204.6678,1441.3065 C257.9758,1426.4985 351.7588,1471.9095 408.0288,1425.5115 C464.2988,1379.1135 385.3238,1305.0745 388.2848,1287.3045 C391.2468,1269.5355 253.0398,1251.7655 253.0398,1251.7655" id="Fill-98" fill="#f6cbc3" blush:color="Skin-500" blush:i="0.2.1.0.1.1.1"/><g id="Group-102" transform="translate(124.000000, 0.000000)" blush:i="0.2.1.0.1.1.2"><mask id="lower-bodystandingyoga-pose-mask-2" fill="#ffffff" blush:i="0.2.1.0.1.1.2.0"><use xlink:href="#lower-bodystandingyoga-pose-path-1" fill="#ffffff" blush:i="0.2.1.0.1.1.2.0.0"/></mask><g id="Clip-101" blush:i="0.2.1.0.1.1.2.1"/><path d="M0.8203,24.7802 C0.8203,24.7802 -0.9787,308.8502 29.1983,644.5692 C59.3753,980.2882 97.0963,1248.1082 97.0963,1248.1082 C97.0963,1248.1082 232.8923,1316.0062 330.9673,1278.2852 C330.9673,1278.2852 241.4153,244.9012 305.5413,256.2172 C369.6673,267.5342 674.0173,387.2312 665.8283,395.4202 C552.7743,508.4732 410.1823,716.2392 410.1823,716.2392 L455.4473,923.7062 C455.4473,923.7062 960.9113,425.7862 960.9113,327.7112 C960.9113,229.6352 451.4103,0.5342 451.4103,0.5342 C451.4103,0.5342 272.7903,68.7462 0.8203,24.7802" id="Fill-100" fill="#FC7750" mask="url(#lower-bodystandingyoga-pose-mask-2)" blush:i="0.2.1.0.1.1.2.2"/></g><path d="M913.857471,324.160504 L914.827529,328.041096 C891.312393,333.919332 866.71855,345.155924 842.043937,360.191686 C828.850456,368.231286 816.472313,376.847505 805.269922,385.462686 L803.725175,386.656597 C800.935377,388.823652 798.378953,390.869185 796.073588,392.764719 L794.841121,393.783599 C793.918301,394.55073 793.098809,395.241934 792.386396,395.851164 L791.153979,396.9175 L788.503021,393.9221 L789.278533,393.247417 L790.103884,392.540526 C790.536597,392.17211 791.004176,391.777201 791.505927,391.356924 L792.284096,390.707625 C795.340418,388.166936 798.871012,385.337673 802.831442,382.29191 C814.142268,373.593338 826.63723,364.895804 839.96249,356.775902 C864.545004,341.796261 889.082692,330.52388 912.678471,324.459382 L913.857471,324.160504 Z" id="Stroke-103" fill="#000" fill-rule="nonzero" blush:i="0.2.1.0.1.1.3"/><path d="M592.706241,7.01879171 L593.346559,10.9672083 L592.863648,11.0568091 L592.306535,11.1707958 C592.107481,11.2130085 591.895123,11.2594967 591.669602,11.3104354 L591.321464,11.3902032 C589.599333,11.790215 587.576114,12.3364988 585.269292,13.0509409 C578.644731,15.1026233 571.09561,18.0896264 562.761476,22.1872928 C539.16536,33.7888578 514.141526,51.7840569 488.76608,77.5328606 L487.848744,78.4669191 L484.990056,75.6690809 C510.99809,49.0953958 536.711043,30.5382393 560.996574,18.5977072 C569.520518,14.4067173 577.264108,11.3427673 584.085914,9.22999662 C586.485321,8.48688015 588.601378,7.91552911 590.416449,7.49392966 L591.182153,7.32084357 C591.572215,7.23531397 591.903139,7.16718133 592.173652,7.11485264 L592.706241,7.01879171 Z" id="Stroke-105" fill="#000" fill-rule="nonzero" blush:i="0.2.1.0.1.1.4"/><path d="M414.4663,157.7227 C414.4663,184.566978 417.646256,208.659961 422.942934,229.636049 L423.450829,231.612265 C425.068761,237.798094 426.77489,243.297073 428.48351,248.079565 L428.753301,248.828736 C429.443295,250.729538 430.082722,252.372454 430.654939,253.751726 L431.086773,254.770771 L431.355056,255.374913 L427.727544,257.060487 L427.518922,256.595443 L427.200863,255.858316 L426.960278,255.284526 C426.365259,253.850292 425.704051,252.151413 424.993362,250.193601 C422.969841,244.619191 420.949025,238.077855 419.064666,230.615351 C413.785455,209.70844 410.582099,185.77908 410.469377,159.176404 L410.4663,157.7227 L414.4663,157.7227 Z" id="Stroke-107" fill="#000" fill-rule="nonzero" blush:i="0.2.1.0.1.1.5"/></g></g></g><g id="Upper Body" transform="translate(376.000000, 277.000000) scale(1 1)" blush:width="1578" blush:height="1152" blush:component="Upper Body" blush:i="0.2.1.1" blush:value="With Laptop" blush:viewBox="299.81999999999994 -3.9452054794520564 1136.16 1033.6438356164383"><defs blush:i="0.2.1.1.0"><polygon id="upper-bodywith-laptop-path-1" points="0.1808 0.1553 298.703924 0.1553 298.703924 343 0.1808 343" blush:i="0.2.1.1.0.0"/><polygon id="upper-bodywith-laptop-path-3" points="0.550418291 0.388 141.311628 0.388 141.311628 92.088834 0.550418291 92.088834" blush:i="0.2.1.1.0.1"/></defs><g id="Upper Body/With Laptop" stroke="none" stroke-width="1" fill="none" fill-rule="evenodd" blush:viewBox="299.81999999999994 -3.9452054794520564 1136.16 1033.6438356164383" blush:i="0.2.1.1.1"><path d="M724.954254,220 C724.954254,220 721.26343,301.153386 673.924004,329.799638 C630.972611,355.790794 721.968632,506.610475 819.857852,497.613536 C873.442212,492.688212 886,346.158072 886,346.158072 C886,346.158072 842.733964,337.796917 858.715877,271.819367 L724.954254,220 Z" id="Neck" fill="#f6cbc3" blush:color="Skin-500" blush:i="0.2.1.1.1.0"/><path d="M803.337113,302.515641 C739.876612,294.840687 694.077698,253.11575 687.664652,183.898064 C669.216286,186.83496 664.86504,138.764927 670.003065,123.322958 C675.146083,107.858975 691.933027,116.900812 691.933027,116.900812 C692.862251,114.457234 693.652358,111.898916 694.303348,109.225857 C722.02532,-4.48555283 799.669805,0.0243586862 799.669805,0.0243586862 C942.344355,7.45715716 908.914243,153.120195 900.762895,191.763142 C892.610548,230.410091 864.683894,309.927426 803.337113,302.515641 Z" id="Head" fill="#f6cbc3" blush:color="Skin-500" blush:i="0.2.1.1.1.1"/><g id="Group-25" transform="translate(266.000000, 320.000000)" blush:i="0.2.1.1.1.2"><g id="Group-19" transform="translate(0.000000, 0.612000)" blush:i="0.2.1.1.1.2.0"><path d="M105.050047,289.936251 C33.5168788,376.727653 8.92577071,446.699768 31.2767231,499.852598 C64.8031518,579.581843 146.951413,496.522302 192.490195,395.604271 C222.849383,328.325583 260.283957,276.925705 304.793918,241.404634 L105.050047,289.936251 Z" id="Path" fill="#f6cbc3" transform="translate(164.044509, 386.561708) rotate(-10.000000) translate(-164.044509, -386.561708)" blush:color="Skin-500" blush:i="0.2.1.1.1.2.0.0"/><g id="Group-3" transform="translate(695.000000, 361.000000)" blush:i="0.2.1.1.1.2.0.1"><mask id="upper-bodywith-laptop-mask-2" fill="#ffffff" blush:i="0.2.1.1.1.2.0.1.0"><use xlink:href="#upper-bodywith-laptop-path-1" fill="#ffffff" blush:i="0.2.1.1.1.2.0.1.0.0"/></mask><g id="Clip-2" blush:i="0.2.1.1.1.2.0.1.1"/></g><path d="M280.8551,41.1066 C363.7551,15.4706 389.3011,14.0266 389.3011,14.0266 L476.8081,32.8846 C476.8081,32.8846 524.7691,95.9186 528.8791,152.1006 C528.8791,152.1006 530.2491,78.1046 561.7671,27.4036 C561.7671,27.4036 700.4791,26.1286 752.7731,80.7306 C835.3711,166.9736 833.813167,318.3006 833.813167,318.3006 L697.5221,332.3166 L752.7731,255.388 C752.7731,255.388 756.263179,568.804637 748.041179,649.652637 C644,764.422821 270,675.591107 270,675.591107 C270,675.591107 278.1151,416.25183 279.4851,345.3136 C280.8551,274.37537 254.6201,283.9566 218.4531,371.8906 C188.8861,443.7816 94.8851,294.7296 94.8851,294.7296 C94.8851,294.7296 152.5811,80.7726 280.8551,41.1066 Z" id="Fill-4" fill="#1BC0D7" blush:i="0.2.1.1.1.2.0.2"/><path d="M704.0424,431.7121 C704.0424,431.7121 771.3394,407.5801 839.7714,421.8301 C839.7714,421.8301 838.8854,399.4921 839.5874,369.9961 C840.1634,345.7711 853.4304,308.2791 805.5564,312.3171 C749.8404,317.0161 725.9594,317.5081 701.7344,328.4671 C701.7344,328.4671 695.9674,408.6411 704.0424,431.7121" id="Fill-6" fill="#FCEBEC" blush:i="0.2.1.1.1.2.0.3"/><path d="M63.9394,341.7921 L93.2847063,249.4471 C93.2847063,249.4471 201.904517,226.7581 244.9394,320.6421 L212.685338,404.2371 C212.685338,404.2371 152.370466,315.2971 63.9394,341.7921" id="Fill-10" fill="#237978" blush:i="0.2.1.1.1.2.0.4"/><g id="Group-14" transform="translate(338.000000, 0.000000)" blush:i="0.2.1.1.1.2.0.5"><mask id="upper-bodywith-laptop-mask-4" fill="#ffffff" blush:i="0.2.1.1.1.2.0.5.0"><use xlink:href="#upper-bodywith-laptop-path-3" fill="#ffffff" blush:i="0.2.1.1.1.2.0.5.0.0"/></mask><g id="Clip-13" blush:i="0.2.1.1.1.2.0.5.1"/><path d="M52.6986,0.4875 C52.6986,0.4875 -2.7084,19.2415 0.7016,24.3555 C4.1106,29.4695 102.4766,94.8915 109.8506,91.9955 C117.2246,89.0985 144.8776,36.6905 140.9276,31.4235 C136.9766,26.1565 57.4346,-1.4785 52.6986,0.4875" id="Fill-12" fill="#237978" mask="url(#upper-bodywith-laptop-mask-4)" blush:i="0.2.1.1.1.2.0.5.2"/></g><path d="M650.6088,23.2834 C650.6088,23.2834 698.2988,57.1534 693.5648,61.0734 C688.8308,64.9934 575.8238,99.4234 569.5908,94.5314 C563.3598,89.6394 551.9168,31.4994 557.2118,27.5884 C562.5088,23.6774 646.6358,20.0404 650.6088,23.2834" id="Fill-15" fill="#237978" blush:i="0.2.1.1.1.2.0.6"/><path d="M123.259851,445.031349 C166.893554,466.002349 153.233851,474.731349 174.524851,487.829349 C195.815851,500.928349 228.449851,535.078349 239.694851,527.258349 C250.938851,519.438349 247.765851,512.512349 236.068851,502.885349 C224.372851,493.257349 188.169851,461.709349 192.145851,456.921349 C196.122851,452.133349 257.341851,520.465349 275.349851,508.401349 C293.357851,496.336349 254.631851,465.557349 235.864851,452.620349 C217.098851,439.684349 206.592851,428.138349 212.609851,426.196349 C218.626851,424.255349 289.502851,499.367349 303.228851,487.951349 C316.956851,476.535349 291.560851,450.435349 272.692851,437.256349 C253.825851,424.077349 224.797851,402.906349 224.797851,402.906349 C224.797851,402.906349 262.223851,418.298349 291.053851,445.811349 C319.883851,473.323349 326.829851,471.564349 330.441851,465.221349 C334.053851,458.878349 304.306851,424.060349 304.306851,424.060349 C304.306851,424.060349 305.316851,383.621349 266.957851,370.249349 C228.598851,356.878349 199.545851,336.218349 159.169851,339.440349 C118.793851,342.660349 106.355352,366.565153 106.355352,366.565153 C106.355352,366.565153 79.6261472,424.060349 123.259851,445.031349 Z" id="Fill-8" fill="#f6cbc3" transform="translate(214.499157, 433.756203) rotate(30.000000) translate(-214.499157, -433.756203)" blush:color="Skin-500" blush:i="0.2.1.1.1.2.0.7"/><path d="M662.9867,209.88 L572.1647,209.88 C568.4677,209.88 565.4707,206.884 565.4707,203.188 L565.4707,195.319 C565.4707,191.624 568.4677,188.627 572.1647,188.627 L662.9867,188.627 C666.6827,188.627 669.6787,191.624 669.6787,195.319 L669.6787,203.188 C669.6787,206.884 666.6827,209.88 662.9867,209.88" id="Fill-17" fill="#237978" blush:i="0.2.1.1.1.2.0.8"/></g><g id="Group-24" transform="translate(397.000000, 175.000000)" blush:i="0.2.1.1.1.2.1"><path d="M185.2874,372.4279 L2.5724,321.7809 C2.5724,321.7809 -8.7866,309.7899 24.6594,306.6349 C58.1044,303.4799 407.5584,294.1429 407.5584,294.1429 L185.2874,372.4279 Z" id="Fill-20" fill="#204EB2" blush:i="0.2.1.1.1.2.1.0"/><path d="M703.3129,371.8791 L190.8269,371.8791 C181.3339,371.8791 173.6369,364.1841 173.6369,354.6901 L220.1609,17.2031 C220.1609,7.7101 227.8559,0.0141 237.3489,0.0141 L749.8349,0.0141 C759.3289,0.0141 767.0249,7.7101 767.0249,17.2031 L720.5009,354.6901 C720.5009,364.1841 712.8059,371.8791 703.3129,371.8791" id="Fill-22" fill="#3267C8" blush:i="0.2.1.1.1.2.1.1"/></g><g id="Group-2" transform="translate(893.239277, 513.555823) scale(-1, 1) rotate(-72.000000) translate(-893.239277, -513.555823) translate(800.239277, 441.555823)" blush:i="0.2.1.1.1.2.2"><path d="M34.8019558,0.721228206 C34.8019558,0.721228206 30.1385768,5.272 25.5025768,10.938 C20.8665768,16.604 24.9875768,17.635 14.6855768,28.452 C4.38357684,39.27 -14.1604232,66.57 18.2905768,108.294 C50.7435768,150.018 61.5605768,146.411 74.9535768,139.2 C88.3455768,131.988 89.8915768,126.838 115.131577,124.262 C140.371577,121.687 164.581577,96.961 164.066577,90.78 L163.551577,84.599 C163.551577,84.599 186.730577,75.842 185.186577,66.055 C183.640577,56.268 176.944577,57.298 176.944577,57.298 C176.944577,57.298 181.580577,52.662 177.974577,44.42 C174.368577,36.179 157.370577,37.724 137.795577,40.3 C118.222577,42.875 67.7415768,53.177 64.6505768,51.117 C61.5605768,49.057 62.5905768,45.966 74.4375768,44.42 C86.2855768,42.875 134.190577,42.36 134.190577,28.967 C134.190577,15.574 119.767577,12.999 91.9515768,13.514 C64.1355768,14.029 58.9845768,12.483 52.2885768,15.06 L39.9277765,16.4968824 C36.5105627,5.9797796 34.8019558,0.721228206 34.8019558,0.721228206 Z" id="Fill-12" fill="#f6cbc3" blush:color="Skin-500" blush:i="0.2.1.1.1.2.2.0"/><path d="M177.350177,57.2402 C177.350177,57.2402 178.830177,56.1722 167.807177,60.3812 C163.793177,61.9132 158.133177,63.5122 150.159177,65.0242 C120.282177,70.6902 73.4081768,80.9932 58.9851768,83.0532 C44.5611768,85.1142 56.4091768,88.2042 89.3761768,81.5082 C122.343177,74.8112 161.588177,65.8282 163.350177,65.2402 C166.350177,64.2402 175.350177,61.2402 177.350177,57.2402" id="Fill-14" fill="#000" blush:i="0.2.1.1.1.2.2.1"/><path d="M116.349877,99.2405 C103.608877,102.4255 82.3498768,107.2405 80.1038768,107.7785 C76.0968768,108.7395 68.2558768,110.3545 68.2558768,110.3545 C68.2558768,110.3545 68.3498768,113.2405 92.3498768,108.2405 C98.3048768,107.0005 109.349877,105.2405 116.349877,103.2405 C122.788877,101.4005 146.037877,95.4165 149.128877,92.8405 C152.218877,90.2645 152.733877,87.6895 152.733877,87.6895 C152.733877,87.6895 128.349877,96.2405 116.349877,99.2405 Z" id="Fill-16" fill="#000" blush:i="0.2.1.1.1.2.2.2"/></g></g></g></g><g id="Expression" transform="translate(1098.000000, 360.000000) scale(1 1)" fill="#000" blush:width="202" blush:height="224" blush:component="Expression" blush:i="0.2.1.2" blush:value="Happy" blush:viewBox="24.298226164079836 30.23999999999998 163.4811529933481 193.76"><g id="Expression/Happy" stroke="none" stroke-width="1" fill="none" fill-rule="evenodd" blush:viewBox="24.298226164079836 30.23999999999998 163.4811529933481 193.76" blush:i="0.2.1.2.0"><g id="Group-124" transform="translate(25.000000, 52.000000)" fill="#000" fill-rule="nonzero" blush:i="0.2.1.2.0.0"><path d="M98.9388073,0.515726772 L102.747593,1.73767323 L102.375135,2.93095324 C102.075892,3.9043293 101.742122,5.01790967 101.382468,6.25291663 C100.354215,9.78380887 99.3257634,13.5761133 98.3662837,17.478955 C97.2996742,21.8175645 96.3854385,26.0250163 95.6702376,29.9976992 L95.4631649,31.1740325 C93.7257688,41.2776329 93.4803733,48.9926374 95.0328764,53.1417647 L95.1244408,53.3771728 C104.002358,75.340079 91.9464166,86.4779502 66.6424816,78.6786942 L65.8716485,78.4365483 L67.0907515,74.6268517 C89.8846425,81.9208968 99.0260452,73.7026714 91.4159925,54.8763096 C89.3210345,49.6942966 89.6433125,40.8993486 91.7335247,29.288974 C92.4647551,25.2272527 93.3964651,20.9393815 94.4819426,16.5240234 C95.3476055,13.0027971 96.2678852,9.57278889 97.1943734,6.33814281 L97.5420029,5.13451153 C97.7507758,4.41761123 97.9510908,3.74056192 98.1413397,3.10683734 L98.6297394,1.50244969 L98.9388073,0.515726772 Z" id="Stroke-114" blush:i="0.2.1.2.0.0.0"/><path d="M0.1850015,153.534088 L2.1419985,150.045512 L2.85620174,150.434727 L3.51128674,150.782909 C4.50308988,151.305335 5.6321651,151.880908 6.88714027,152.498006 L7.43266178,152.764985 C11.6537624,154.821142 16.3218862,156.878362 21.3004212,158.797989 C32.7483158,163.212076 44.0600582,166.224884 54.584272,167.202241 C59.3535856,167.645156 63.8735301,167.656119 68.1063644,167.201856 L68.9490919,167.10479 L69.4379081,171.07481 C64.6629697,171.662733 59.5745075,171.682884 54.2143935,171.185103 C43.2765951,170.169337 31.6251616,167.066055 19.8613669,162.530163 C14.7706849,160.567294 9.99959664,158.464698 5.68097489,156.361037 L4.04785364,155.55429 C3.35348222,155.206284 2.70158001,154.872883 2.09423579,154.556252 L0.962732129,153.958187 L0.1850015,153.534088 Z" id="Stroke-122" blush:i="0.2.1.2.0.0.1"/></g><g id="Group-16" transform="translate(27.000000, 30.000000)" fill="#000" blush:i="0.2.1.2.0.1"><path d="M70.0371,131.9951 C51.1661,131.9951 36.9381,123.3511 36.2701,122.9381 C34.8611,122.0681 34.4251,120.2191 35.2961,118.8091 C36.1651,117.4011 38.0141,116.9631 39.4241,117.8341 C39.7061,118.0061 56.4191,128.0481 76.5681,125.6031 C78.2011,125.4051 79.7071,126.5751 79.9081,128.2201 C80.1081,129.8641 78.9361,131.3601 77.2911,131.5591 C74.8141,131.8611 72.3881,131.9951 70.0371,131.9951" id="Fill-3" transform="translate(57.388937, 124.690582) rotate(15.000000) translate(-57.388937, -124.690582)" blush:i="0.2.1.2.0.1.0"/><path d="M78.8252,103.1664 C74.7822,103.1664 69.7382,102.3754 63.4432,100.3614 L64.6612,96.5514 C76.3852,100.3024 85.0452,99.9964 89.0462,95.6874 C92.4492,92.0204 92.4282,85.3134 88.9872,76.8014 C86.6522,71.0264 87.2292,60.0734 90.7022,44.2454 C93.2432,32.6624 96.4772,22.5414 96.5102,22.4404 L100.3182,23.6624 C96.8112,34.5954 88.6062,65.1874 92.6952,75.3024 C97.8932,88.1604 95.1742,94.9644 91.9772,98.4084 C89.6972,100.8664 85.7182,103.1664 78.8252,103.1664" id="Fill-5" blush:i="0.2.1.2.0.1.1"/><g id="Group-9" transform="translate(0.000000, 0.956000)" blush:i="0.2.1.2.0.1.2"><path d="M62.1387,19.4316 C61.5377,19.4316 60.9257,19.3316 60.3267,19.1226 C54.4907,17.0866 37.6337,11.6746 29.8217,11.0966 C22.4657,10.5516 11.2427,14.1856 7.5387,15.6326 C4.7097,16.7366 1.5207,15.3416 0.4147,12.5146 C-0.6923,9.6866 0.7007,6.4986 3.5277,5.3896 C4.1637,5.1406 19.2597,-0.7164 30.6337,0.1266 C41.4887,0.9306 63.0387,8.4186 63.9507,8.7376 C66.8187,9.7386 68.3317,12.8746 67.3317,15.7426 C66.5397,18.0106 64.4127,19.4316 62.1387,19.4316" id="Fill-7" blush:i="0.2.1.2.0.1.2.0"/></g><path d="M154.6772,39.1645 C153.5752,39.1645 152.4632,38.8265 151.5062,38.1245 C148.4472,35.8845 139.0022,29.8175 132.1372,28.6695 C124.8122,27.4455 107.9602,28.8295 102.0842,29.4645 C99.1372,29.7795 96.4882,27.6525 96.1692,24.7055 C95.8492,21.7575 97.9802,19.1085 100.9272,18.7895 C101.8492,18.6895 123.6282,16.3615 133.9072,18.0795 C144.7152,19.8855 157.3282,29.0775 157.8602,29.4685 C160.2492,31.2235 160.7642,34.5835 159.0092,36.9735 C157.9572,38.4055 156.3282,39.1645 154.6772,39.1645" id="Fill-10" blush:i="0.2.1.2.0.1.3"/><path d="M51.6362,49.1289 C50.9112,49.1289 50.1852,48.8679 49.6092,48.3389 C49.5712,48.3049 44.6242,43.9129 37.4832,44.1789 C30.0942,44.4519 25.1892,48.0669 25.1402,48.1029 C23.8182,49.0929 21.9392,48.8329 20.9442,47.5169 C19.9472,46.1999 20.1962,44.3309 21.5082,43.3279 C21.7642,43.1319 27.8862,38.5299 37.2612,38.1829 C46.9102,37.8359 53.3942,43.6699 53.6652,43.9189 C54.8862,45.0389 54.9682,46.9369 53.8472,48.1569 C53.2562,48.8019 52.4472,49.1289 51.6362,49.1289" id="Fill-12" blush:i="0.2.1.2.0.1.4"/><path d="M135.7539,58.2724 C135.0289,58.2724 134.3029,58.0114 133.7269,57.4824 C133.6889,57.4484 128.7419,53.0504 121.5999,53.3224 C114.2309,53.5944 109.3169,57.2014 109.2699,57.2374 C107.9529,58.2444 106.0699,57.9924 105.0639,56.6764 C104.0579,55.3604 104.3089,53.4774 105.6249,52.4714 C105.8809,52.2754 112.0039,47.6724 121.3789,47.3264 C131.0239,46.9814 137.5119,52.8134 137.7829,53.0624 C139.0039,54.1824 139.0859,56.0804 137.9649,57.3004 C137.3739,57.9454 136.5649,58.2724 135.7539,58.2724" id="Fill-14" blush:i="0.2.1.2.0.1.5"/></g></g></g><g id="Hairstyle" transform="translate(607.000000, 33.000000) scale(1 1)" blush:width="826" blush:height="747" blush:component="Hairstyle" blush:i="0.2.1.3" blush:value="Wavy Short" blush:viewBox="417.1300000000001 183.44469026548677 305.62000000000006 285.08296460177"><g id="Hairstyle/Wavy Short" stroke="none" stroke-width="1" fill="none" fill-rule="evenodd" blush:viewBox="417.1300000000001 183.44469026548677 305.62000000000006 285.08296460177" blush:i="0.2.1.3.0"><path d="M687.077448,401.040627 C687.077448,382.303627 682.899448,358.579627 694.142448,349.211627 C705.384448,339.842627 729.742448,323.916627 715.689448,304.241627 C701.636448,284.567627 717.563448,246.156627 693.205448,241.473627 C668.846448,236.788627 667.819448,229.080627 661.261448,211.279627 C654.704448,193.479627 626.850448,207.551627 615.414448,198.565627 C604.626448,190.090627 591.728448,175.479627 561.861448,190.475627 C545.777448,198.550627 518.325448,167.166627 498.338448,211.493627 C485.520448,239.922627 471.958448,215.026627 453.410448,229.797627 C431.362448,247.353627 452.818448,273.014627 433.144448,286.129627 C413.470448,299.245627 430.604448,314.284627 423.526448,329.065627 C411.848448,353.453627 431.822448,439.149627 444.937448,446.643627 C458.054448,454.139627 464.838448,466.752627 464.838448,466.752627 C464.838448,466.752627 458.789448,446.209627 457.298448,427.470627 C457.298448,427.470627 447.160448,430.000627 441.627448,411.893627 C436.094448,393.786627 434.128448,362.926627 446.100448,359.450627 C458.072448,355.975627 460.310448,365.709627 460.310448,365.709627 C460.310448,365.709627 464.241448,380.626627 461.965448,392.004627 C459.689448,403.383627 467.085448,410.210627 471.067448,393.142627 C475.050448,376.074627 494.962448,375.506627 490.979448,352.180627 C486.997448,328.854627 494.962448,315.200627 510.892448,308.374627 C526.821448,301.547627 531.373448,266.843627 545.026448,270.256627 C558.681448,273.670627 574.041448,258.878627 595.091448,269.118627 C616.141448,279.359627 614.434448,293.582627 632.640448,296.995627 C650.845448,300.409627 660.516448,311.787627 660.516448,321.459627 C660.516448,331.130627 673.032448,334.544627 676.446448,348.197627 C679.859448,361.851627 676.868448,402.336627 669.727448,436.330627 C669.727448,436.330627 687.077448,419.777627 687.077448,401.040627 Z" id="Fill-1" fill="#711515" blush:color="Hair-500" blush:i="0.2.1.3.0.0"/></g></g><g id="Accessories" transform="translate(1051.000000, 393.000000) scale(1 1)" fill="#000" blush:width="234" blush:height="78" blush:component="Accessories" blush:i="0.2.1.4" blush:value="None" blush:viewBox="409.5 136.5 0 0"><g id="Accessories/None" stroke="none" stroke-width="1" fill="none" fill-rule="evenodd" fill-opacity="0" blush:viewBox="409.5 136.5 0 0" blush:i="0.2.1.4.0"/></g><g id="Facial Hair" transform="translate(1061.000000, 394.000000) scale(1 1)" blush:width="212" blush:height="211" blush:component="Facial Hair" blush:i="0.2.1.5" blush:value="Beard Lock" blush:viewBox="53 92.78915662650601 129.32 118.63453815261052"><g id="Facial Hair/Beard Lock" stroke="none" stroke-width="1" fill="none" fill-rule="evenodd" blush:viewBox="53 92.78915662650601 129.32 118.63453815261052" blush:i="0.2.1.5.0"><path d="M140.312831,147.74 L123.312831,145.74 C123.312831,145.74 95.3128308,169.74 83.3128308,149.74 C68.7878308,125.532 96.3128308,117.74 113.312831,114.74 C130.312831,111.74 139.312831,107.74 139.312831,107.74 C145.312831,113.74 148.042849,117.801605 158.701043,126.153639 C169.301216,134.460205 169.161987,155.061894 158.701043,157.251468 C148.2401,159.441042 140.312831,147.74 140.312831,147.74 Z M181.683854,132.719239 C173.717106,114.74 170.267034,110.806219 158.701043,102.710026 C147.679043,94.9950262 97.3128308,83.74 82.3128308,106.74 C76.0313806,116.371557 71.8542832,121.794408 67.5050387,123.375731 C61.4683586,125.570581 42.1806716,160.537874 63.5320369,191.065918 C73.4524323,205.250036 93.6930143,211.908639 115.312831,210.74 C129.78517,209.957711 142.115595,206.765769 152.61828,201.792522 C160.884977,197.878063 173.788221,185.562714 181.683854,159.718035" id="Fill-137" fill="#711515" blush:color="Hair-500" blush:i="0.2.1.5.0.0"/></g></g></g></g></g></svg>